<?xml version="1.0" encoding="utf-8"?>
<!-- Generator: Adobe Illustrator 19.1.0, SVG Export Plug-In . SVG Version: 6.00 Build 0)  -->
<!DOCTYPE svg PUBLIC "-//W3C//DTD SVG 1.1//EN" "http://www.w3.org/Graphics/SVG/1.1/DTD/svg11.dtd">
<svg version="1.1" xmlns="http://www.w3.org/2000/svg" xmlns:xlink="http://www.w3.org/1999/xlink" x="0px" y="0px"
	 viewBox="0 0 210 45" enable-background="new 0 0 210 45" xml:space="preserve">
<path fill="#FFFFFF" d="M63.2,23.6c0.3-0.7,0.6-1.4,1.4-1.9c0.9-0.6,2.2-0.9,3.3-0.9c1.3,0,2.5,0.4,3.2,0.8c1,0.6,1.2,1.4,1.3,2
	H63.2z M77.7,26.2c0-1.5-0.1-3.9-2-6c-2.2-2.4-5.7-2.8-7.7-2.8c-5.3,0-9.9,2.4-9.9,7.8c0,2.1,0.8,4.5,2.8,6c2,1.6,4.6,2.1,7.1,2.1
	c4.1,0,7.8-1.5,9.9-5l-5-0.5c-0.4,0.6-1.6,2-4.7,2c-1.6,0-3.2-0.5-4.2-1.7c-0.5-0.6-0.8-1.5-0.9-2H77.7z"/>
<path fill="#FFFFFF" d="M80.4,12.2h4.8v20.6h-4.8V12.2z"/>
<path fill="#FFFFFF" d="M92.8,23.6c0.3-0.7,0.6-1.4,1.4-1.9c0.9-0.6,2.2-0.9,3.3-0.9c1.3,0,2.5,0.4,3.2,0.8c1,0.6,1.2,1.4,1.3,2
	H92.8z M107.3,26.2c0-1.5-0.1-3.9-2-6c-2.2-2.4-5.7-2.8-7.7-2.8c-5.3,0-9.9,2.4-9.9,7.8c0,2.1,0.8,4.5,2.8,6c2,1.6,4.6,2.1,7.1,2.1
	c4.1,0,7.8-1.5,9.9-5l-5-0.5c-0.4,0.6-1.6,2-4.7,2c-1.6,0-3.2-0.5-4.2-1.7c-0.5-0.6-0.8-1.5-0.9-2H107.3z"/>
<path fill="#FFFFFF" d="M108.2,18h6.5l3.5,4.4l3.5-4.4h6.4l-6.8,6.8l7.8,8h-6.4l-4.5-5.3l-4.6,5.3h-6.5l7.8-8L108.2,18z"/>
<path fill="#FFFFFF" d="M135.6,12.9v3.3h-4.8v-3.3H135.6z M135.6,18v14.8h-4.8V18H135.6z"/>
<path fill="#FFFFFF" d="M156.9,28.2c-2,4-6.4,5.2-9.5,5.2c-4.9,0-9.5-2.8-9.5-8c0-6,5.6-8,9.7-8c2,0,4.6,0.5,6.6,1.9
	c1.5,1.1,2,2,2.4,2.9l-5,0.6c-0.4-0.5-1.4-1.7-3.9-1.7c-2.8,0-4.9,1.8-4.9,4.3c0,1.9,1.4,4.4,4.8,4.4c1.1,0,2.2-0.3,3.1-0.8
	c0.9-0.6,1.1-1,1.3-1.4L156.9,28.2z"/>
<path fill="#FFFFFF" d="M167.8,20.9c3.4-0.2,5.4,1.8,5.4,4.4c0,2-1.1,4.6-5.1,4.6c-4.9,0-5.2-3.6-5.2-4.4
	C162.9,23.2,164.3,21.1,167.8,20.9z M168.2,17.4c-5.9,0-10.3,3.1-10.3,8.1c0,4.9,4.1,8,10.2,8c5.5,0,10.1-2.9,10.1-8.2
	C178.1,21,174.7,17.4,168.2,17.4z"/>
<path fill="#FFFFFF" d="M180.1,18h4.7v2.1c0.8-0.8,2.5-2.5,6.5-2.5c3.6,0,5.2,1.6,5.6,2.1c1.3,1.5,1.3,3.3,1.3,4.9v8.2l-4.8,0v-7.6
	c0-1.1-0.1-2.5-1.2-3.4c-0.5-0.4-1.3-0.8-2.9-0.8c-1.3,0-2.4,0.4-3,0.7c-1.3,0.8-1.5,2.2-1.5,3.2v8h-4.7V18z"/>
<polygon fill="#F89A1C" points="43,32.9 25,43.3 7,32.9 7,12.1 25,1.8 43,12.1 "/>
<polygon fill="#FFFFFF" points="25.1,22.4 25.1,8.9 36.9,15.7 36.9,29.2 "/>
<path fill="#0B1333" d="M26.3,22.4V8.9c0,0.4-0.2,0.8-0.6,1.1c-0.4,0.2-0.8,0.2-1.2,0l11.8,6.8c-0.4-0.2-0.6-0.6-0.6-1.1v13.5
	c0-0.4,0.2-0.8,0.6-1.1c0.4-0.2,0.8-0.2,1.2,0l-11.8-6.8C26.1,21.6,26.3,22,26.3,22.4z M38.1,29.2V15.7c0-0.4-0.2-0.8-0.6-1.1
	L25.7,7.9c-0.4-0.2-0.8-0.2-1.2,0c-0.4,0.2-0.6,0.6-0.6,1.1v13.5c0,0.4,0.2,0.8,0.6,1.1l11.8,6.8c0.4,0.2,0.8,0.2,1.2,0
	C37.8,30,38.1,29.6,38.1,29.2z"/>
<polygon fill="#FFFFFF" points="19.2,25.9 19.2,12.4 31,19.2 31,32.7 "/>
<path fill="#0B1333" d="M20.5,25.9V12.4c0,0.4-0.2,0.8-0.6,1.1c-0.4,0.2-0.8,0.2-1.2,0l11.8,6.8c-0.4-0.2-0.6-0.6-0.6-1.1v13.5
	c0-0.4,0.2-0.8,0.6-1.1c0.4-0.2,0.8-0.2,1.2,0l-11.8-6.8C20.2,25.1,20.5,25.5,20.5,25.9z M32.2,32.7V19.2c0-0.4-0.2-0.8-0.6-1.1
	l-11.8-6.8c-0.4-0.2-0.8-0.2-1.2,0C18.3,11.6,18,12,18,12.4v13.5c0,0.4,0.2,0.8,0.6,1.1l11.8,6.8c0.4,0.2,0.8,0.2,1.2,0
	C32,33.5,32.2,33.1,32.2,32.7z"/>
<polygon fill="#FFFFFF" points="13.3,29.1 13.3,15.6 25.1,22.4 25.1,35.9 "/>
<path fill="#0B1333" d="M14.5,29.1V15.6c0,0.4-0.2,0.8-0.6,1.1c-0.4,0.2-0.8,0.2-1.2,0l11.8,6.8c-0.4-0.2-0.6-0.6-0.6-1.1v13.5
	c0-0.4,0.2-0.8,0.6-1.1c0.4-0.2,0.8-0.2,1.2,0L13.9,28C14.3,28.3,14.5,28.7,14.5,29.1z M26.3,35.9V22.4c0-0.4-0.2-0.8-0.6-1.1
	l-11.8-6.8c-0.4-0.2-0.8-0.2-1.2,0c-0.4,0.2-0.6,0.6-0.6,1.1v13.5c0,0.4,0.2,0.8,0.6,1.1l11.8,6.8c0.4,0.2,0.8,0.2,1.2,0
	C26.1,36.7,26.3,36.3,26.3,35.9z"/>
<path fill="#FFFFFF" d="M203.2,14.7l0.9-2.4h0.9v3.2h-0.6v-2.6h0l-1,2.6H203l-1-2.6h0v2.6h-0.6v-3.2h0.9L203.2,14.7z M200.8,12.8h-1
	v2.7h-0.6v-2.7h-1v-0.5h2.5V12.8z"/>
</svg>
